<?xml version="1.0" encoding="UTF-8" standalone="no"?>
<!-- Created with Inkscape (http://www.inkscape.org/) -->

<svg
   xmlns:dc="http://purl.org/dc/elements/1.1/"
   xmlns:cc="http://creativecommons.org/ns#"
   xmlns:rdf="http://www.w3.org/1999/02/22-rdf-syntax-ns#"
   xmlns:svg="http://www.w3.org/2000/svg"
   xmlns="http://www.w3.org/2000/svg"
   xmlns:sodipodi="http://sodipodi.sourceforge.net/DTD/sodipodi-0.dtd"
   xmlns:inkscape="http://www.inkscape.org/namespaces/inkscape"
   width="210mm"
   height="297mm"
   viewBox="0 0 744.09448819 1052.3622047"
   id="svg2"
   version="1.1"
   inkscape:version="0.91 r13725"
   sodipodi:docname="logo.svg">
  <defs
     id="defs4" />
  <sodipodi:namedview
     id="base"
     pagecolor="#ffffff"
     bordercolor="#666666"
     borderopacity="1.0"
     inkscape:pageopacity="0.0"
     inkscape:pageshadow="2"
     inkscape:zoom="0.53751164"
     inkscape:cx="133.35318"
     inkscape:cy="444.51077"
     inkscape:document-units="px"
     inkscape:current-layer="layer1"
     showgrid="false"
     showguides="false"
     inkscape:guide-bbox="true"
     inkscape:window-width="1366"
     inkscape:window-height="705"
     inkscape:window-x="-8"
     inkscape:window-y="-8"
     inkscape:window-maximized="1">
    <sodipodi:guide
       position="97.019528,598.04729"
       orientation="1,0"
       id="guide4233" />
    <sodipodi:guide
       position="106.9887,597.30731"
       orientation="1,0"
       id="guide4235" />
  </sodipodi:namedview>
  <metadata
     id="metadata7">
    <rdf:RDF>
      <cc:Work
         rdf:about="">
        <dc:format>image/svg+xml</dc:format>
        <dc:type
           rdf:resource="http://purl.org/dc/dcmitype/StillImage" />
        <dc:title></dc:title>
      </cc:Work>
    </rdf:RDF>
  </metadata>
  <g
     inkscape:label="Layer 1"
     inkscape:groupmode="layer"
     id="layer1">
    <path
       style="opacity:1;fill:#999999;fill-opacity:1;stroke:none;stroke-width:1;stroke-miterlimit:4;stroke-dasharray:none;stroke-dashoffset:0;stroke-opacity:1"
       d="m 175.94717,225.70059 c -1.66616,-0.0545 -3.39038,0.14873 -5.12891,0.63867 L 38.986244,263.4916 c -9.27218,2.61301 -15.32977,12.3433 -13.58008,21.81641 l 4.90039,26.53125 a 22.363823,9.5375128 79.142058 0 0 -3.06445,22.68554 22.363823,9.5375128 79.142058 0 0 10.91992,19.84766 l 6.96485,37.70703 a 22.363823,9.5375128 79.142058 0 0 -3.07227,22.69141 22.363823,9.5375128 79.142058 0 0 10.92969,19.84961 l 0.99023,5.35937 c 0.9884,5.35138 4.25176,9.43803 8.57422,11.51367 l 21.24024,12.26368 c 3.61991,2.31242 8.21492,3.08458 12.91601,1.75976 L 228.53701,428.36465 c 9.27219,-2.61301 15.32782,-12.3433 13.57813,-21.81641 l -3.83203,-20.74023 0.0156,-0.01 -0.002,-0.0117 a 22.363823,9.5375128 79.142058 0 1 -0.0137,0.0117 l -2.38867,-12.92969 2.40234,12.91797 a 22.363823,9.5375128 79.142058 0 0 2.99219,-22.60351 22.363823,9.5375128 79.142058 0 0 -10.84375,-19.8086 l -6.78516,-36.73828 0.0195,-0.0117 -0.002,-0.01 a 22.363823,9.5375128 79.142058 0 1 -0.0176,0.0137 l -2.95117,-15.97266 2.96875,15.95899 a 22.363823,9.5375128 79.142058 0 0 2.99219,-22.60547 22.363823,9.5375128 79.142058 0 0 -10.84766,-19.81055 l -2.27539,-12.32226 c -0.93769,-5.0768 -3.92745,-9.00669 -7.92188,-11.16993 l -22.21679,-12.82617 0.008,0.0156 c -2.20874,-1.33438 -4.76185,-2.10675 -7.46875,-2.19531 z m 15.5332,30.17187 c 0.36124,-0.0134 0.72047,-0.0143 1.07617,0 6.16542,0.24852 11.4175,4.60574 12.66602,11.14453 l 25.08984,131.40039 c 1.53664,8.04774 -3.5914,16.26119 -11.49609,18.41602 L 102.17569,448.63027 C 94.271004,450.7851 86.669374,446.04129 85.132734,437.99355 L 60.044844,306.59316 c -1.53665,-8.04774 3.58945,-16.26118 11.49414,-18.41601 L 188.17959,256.38027 c 1.1116,-0.30302 2.21705,-0.46775 3.30078,-0.50781 z M 43.206954,310.05215 a 21.130548,7.9320083 79.142058 0 1 0.002,0 21.130548,7.9320083 79.142058 0 1 10.97265,19.30664 21.130548,7.9320083 79.142058 0 1 -3.80859,22.24609 21.130548,7.9320083 79.142058 0 1 -0.0449,0 l 0.002,0.008 -6.70898,1.28711 a 22.363823,9.5375128 79.142058 0 0 2.35547,-21.96679 22.363823,9.5375128 79.142058 0 0 -10.3125,-19.54102 l 6.70507,-1.28516 0,0.004 a 21.130548,7.9320083 79.142058 0 1 0.041,-0.0117 21.130548,7.9320083 79.142058 0 1 0.79688,-0.0469 z m -9.85743,2.94531 a 20.464674,8.1393576 78.895572 0 1 11.11133,18.57031 20.464674,8.1393576 78.895572 0 1 -4.04492,21.64844 20.464674,8.1393576 78.895572 0 1 -2.55274,-0.44336 l -7.15039,-38.71484 a 20.464674,8.1393576 78.895572 0 1 1.82032,-1.00391 20.464674,8.1393576 78.895572 0 1 0.8164,-0.0566 z m 171.564446,69.67578 a 10.857867,11.515627 44.157654 0 0 -1.11524,0.01 10.857867,11.515627 44.157654 0 0 -11.18164,11.83984 10.857867,11.515627 44.157654 0 0 11.18164,10.52344 10.857867,11.515627 44.157654 0 0 11.18164,-11.83985 10.857867,11.515627 44.157654 0 0 -10.0664,-10.5332 z m -146.894516,7.625 a 21.130548,7.9320083 79.142058 0 1 0.002,0 21.130548,7.9320083 79.142058 0 1 10.97265,19.30664 21.130548,7.9320083 79.142058 0 1 -3.80859,22.2461 21.130548,7.9320083 79.142058 0 1 -0.0449,0 l 0.002,0.008 -6.70898,1.28711 a 22.363823,9.5375128 79.142058 0 0 2.35547,-21.9668 22.363823,9.5375128 79.142058 0 0 -10.3125,-19.54101 l 6.70507,-1.28516 0,0.004 a 21.130548,7.9320083 79.142058 0 1 0.041,-0.0117 21.130548,7.9320083 79.142058 0 1 0.79688,-0.0469 z m -9.85743,2.94531 a 20.464674,8.1393576 78.895572 0 1 11.11133,18.57032 20.464674,8.1393576 78.895572 0 1 -4.04492,21.64843 20.464674,8.1393576 78.895572 0 1 -2.55274,-0.44336 l -7.15039,-38.71484 a 20.464674,8.1393576 78.895572 0 1 1.82032,-1.00391 20.464674,8.1393576 78.895572 0 1 0.8164,-0.0566 z"
       id="rect4136"
       inkscape:connector-curvature="0" />
    <path
       style="opacity:1;fill:#1a1a1a;fill-opacity:1;stroke:none;stroke-width:1;stroke-miterlimit:4;stroke-dasharray:none;stroke-dashoffset:0;stroke-opacity:1"
       d="m 122.29358,514.71346 a 22.363823,9.5375128 79.142058 0 0 -0.67383,0.0723 22.363823,9.5375128 79.142058 0 0 -0.0488,0.0137 l 0,-0.004 -9.77148,1.87305 0,0.002 a 22.363823,9.5375128 79.142058 0 0 -5.1543,23.75976 22.363823,9.5375128 79.142058 0 0 13.58008,20.16797 l 9.77148,-1.875 -0.002,-0.006 a 22.363823,9.5375128 79.142058 0 0 0.0508,-0.004 22.363823,9.5375128 79.142058 0 0 5.1543,-23.75977 22.363823,9.5375128 79.142058 0 0 -12.90625,-20.24023 z m 0.31836,1.24414 a 21.130548,7.9320083 79.142058 0 1 10.97265,19.30664 21.130548,7.9320083 79.142058 0 1 -3.80859,22.24609 21.130548,7.9320083 79.142058 0 1 -0.0449,0 l 0.002,0.008 -6.70898,1.28711 a 22.363823,9.5375128 79.142058 0 0 2.35547,-21.96679 22.363823,9.5375128 79.142058 0 0 -10.3125,-19.54102 l 6.70507,-1.28516 0,0.004 a 21.130548,7.9320083 79.142058 0 1 0.041,-0.0117 21.130548,7.9320083 79.142058 0 1 0.79883,-0.0469 z m -9.85938,2.94531 a 20.464674,8.1393576 78.895572 0 1 11.11133,18.57031 20.464674,8.1393576 78.895572 0 1 -4.04492,21.64844 20.464674,8.1393576 78.895572 0 1 -2.55274,-0.44336 l -7.15039,-38.71484 a 20.464674,8.1393576 78.895572 0 1 1.82032,-1.00391 20.464674,8.1393576 78.895572 0 1 0.8164,-0.0566 z"
       id="rect4231-3-5"
       inkscape:connector-curvature="0" />
    <rect
       style="opacity:1;fill:#99cc99;fill-opacity:1;stroke:none;stroke-width:1;stroke-miterlimit:4;stroke-dasharray:none;stroke-dashoffset:0;stroke-opacity:1"
       id="rect4425"
       width="289.41418"
       height="289.41418"
       x="382.81601"
       y="253.84216"
       ry="32.887974" />
    <path
       style="opacity:1;fill:#ffffff;fill-opacity:1;stroke:none;stroke-width:1;stroke-miterlimit:4;stroke-dasharray:none;stroke-dashoffset:0;stroke-opacity:1"
       d="m 571.16349,269.11405 c -1.77553,-0.0581 -3.61294,0.15849 -5.4656,0.6806 L 425.2115,309.38593 c -9.88087,2.78454 -16.33612,13.1536 -14.47157,23.24859 l 5.22209,28.27294 a 23.83194,10.163622 79.142058 0 0 -3.26562,24.17478 23.83194,10.163622 79.142058 0 0 11.63678,21.1506 l 7.42207,40.18238 a 23.83194,10.163622 79.142058 0 0 -3.27396,24.18104 23.83194,10.163622 79.142058 0 0 11.64719,21.15267 l 1.05524,5.7112 c 1.05328,5.70268 4.53087,10.05761 9.13709,12.26951 l 22.6346,13.06875 c 3.85754,2.46422 8.7542,3.28707 13.76391,1.87528 L 627.2057,485.08239 c 9.88088,-2.78454 16.33404,-13.1536 14.46949,-23.24859 l -4.08359,-22.10176 0.0166,-0.0107 -0.002,-0.0125 a 23.83194,10.163622 79.142058 0 1 -0.0146,0.0125 l -2.54547,-13.77848 2.56004,13.76599 a 23.83194,10.163622 79.142058 0 0 3.18862,-24.08736 23.83194,10.163622 79.142058 0 0 -11.55561,-21.10897 l -7.23058,-39.15004 0.0208,-0.0125 -0.002,-0.0106 a 23.83194,10.163622 79.142058 0 1 -0.0188,0.0146 l -3.14491,-17.02121 3.16364,17.00665 a 23.83194,10.163622 79.142058 0 0 3.18862,-24.08945 23.83194,10.163622 79.142058 0 0 -11.55977,-21.11106 l -2.42477,-13.13118 c -0.99924,-5.41007 -4.18527,-9.59795 -8.44192,-11.9032 l -23.67526,-13.66817 0.009,0.0166 c -2.35374,-1.42198 -5.07446,-2.24505 -7.95906,-2.33943 z m 16.55291,32.15256 c 0.38496,-0.0143 0.76777,-0.0152 1.14682,0 6.57016,0.26484 12.16702,4.9081 13.49751,11.87614 l 26.73691,140.02643 c 1.63751,8.57605 -3.82717,17.32868 -12.25078,19.62497 l -124.29772,33.88424 c -8.4236,2.29629 -16.52425,-2.75894 -18.16177,-11.33499 L 447.65254,355.31697 c -1.63753,-8.57605 3.82508,-17.32867 12.24869,-19.62496 l 124.29771,-33.88425 c 1.18457,-0.32291 2.36259,-0.49846 3.51746,-0.54115 z m -158.00711,57.73643 a 22.517705,8.4527207 79.142058 0 1 0.002,0 22.517705,8.4527207 79.142058 0 1 11.69297,20.57406 22.517705,8.4527207 79.142058 0 1 -4.05861,23.70648 22.517705,8.4527207 79.142058 0 1 -0.0478,0 l 0.002,0.009 -7.1494,1.37161 a 23.83194,10.163622 79.142058 0 0 2.5101,-23.40885 23.83194,10.163622 79.142058 0 0 -10.98948,-20.82382 l 7.14523,-1.36953 0,0.004 a 22.517705,8.4527207 79.142058 0 1 0.0437,-0.0125 22.517705,8.4527207 79.142058 0 1 0.8492,-0.05 z m -10.50454,3.13866 a 21.808118,8.6736818 78.895572 0 1 11.84076,19.78939 21.808118,8.6736818 78.895572 0 1 -4.31046,23.0696 21.808118,8.6736818 78.895572 0 1 -2.72032,-0.47247 l -7.61979,-41.25635 a 21.808118,8.6736818 78.895572 0 1 1.93982,-1.06981 21.808118,8.6736818 78.895572 0 1 0.86999,-0.0603 z m 182.82713,74.24978 a 11.570653,12.271593 44.157654 0 0 -1.18845,0.0107 11.570653,12.271593 44.157654 0 0 -11.91569,12.61709 11.570653,12.271593 44.157654 0 0 11.91569,11.21427 11.570653,12.271593 44.157654 0 0 11.91568,-12.6171 11.570653,12.271593 44.157654 0 0 -10.72723,-11.22467 z m -156.53769,8.12556 a 22.517705,8.4527207 79.142058 0 1 0.002,0 22.517705,8.4527207 79.142058 0 1 11.69297,20.57406 22.517705,8.4527207 79.142058 0 1 -4.05861,23.70649 22.517705,8.4527207 79.142058 0 1 -0.0478,0 l 0.002,0.009 -7.1494,1.3716 a 23.83194,10.163622 79.142058 0 0 2.5101,-23.40885 23.83194,10.163622 79.142058 0 0 -10.98949,-20.82382 l 7.14524,-1.36953 0,0.004 a 22.517705,8.4527207 79.142058 0 1 0.0437,-0.0125 22.517705,8.4527207 79.142058 0 1 0.84919,-0.05 z m -10.50454,3.13866 a 21.808118,8.6736818 78.895572 0 1 11.84075,19.78941 21.808118,8.6736818 78.895572 0 1 -4.31046,23.06958 21.808118,8.6736818 78.895572 0 1 -2.72031,-0.47247 l -7.6198,-41.25635 a 21.808118,8.6736818 78.895572 0 1 1.93982,-1.06981 21.808118,8.6736818 78.895572 0 1 0.87,-0.0603 z"
       id="rect4136-6"
       inkscape:connector-curvature="0" />
  </g>
</svg>
